<svg id="Lag_1" data-name="Lag 1" xmlns="http://www.w3.org/2000/svg" viewBox="0 0 1041.39 700.08"><defs><style>.cls-1,.cls-5{fill:#dfdce3;}.cls-2{opacity:0.3;}.cls-3,.cls-9{font-size:20px;}.cls-3,.cls-5,.cls-9{font-family:Roboto-Regular, Roboto;}.cls-4{fill:none;stroke:#dfdce3;stroke-miterlimit:10;}.cls-5{font-size:10px;}.cls-6{letter-spacing:-0.01em;}.cls-7{letter-spacing:-0.01em;}.cls-8{letter-spacing:0em;}.cls-12,.cls-13,.cls-14,.cls-9{fill:#fff;}.cls-10{fill:#42ab9e;}.cls-11{fill:#ecd06f;}.cls-12{font-size:14.28px;}.cls-12,.cls-13,.cls-14{font-family:Roboto-Bold, Roboto;font-weight:700;}.cls-13{font-size:13px;}.cls-14{font-size:8px;}.cls-15{letter-spacing:-0.07em;}.cls-16{letter-spacing:-0.06em;}</style></defs><title>Tegnebræt 1</title><rect class="cls-1" x="889.98" y="67.83" width="141.58" height="121.17"/><rect class="cls-1" x="743.21" y="67.83" width="141.58" height="121.17"/><rect class="cls-1" x="596.15" y="67.37" width="141.58" height="121.17"/><rect class="cls-1" x="449.39" y="67.37" width="141.58" height="121.17"/><rect class="cls-1" x="303.09" y="67.83" width="141.58" height="121.17"/><rect class="cls-1" x="156.5" y="67.27" width="141.58" height="121.17"/><g class="cls-2"><rect class="cls-1" x="10.2" y="67.72" width="141.58" height="121.17"/></g><text class="cls-3" transform="translate(11.42 56.25) scale(1.17 1)">AUGUST 2017</text><rect class="cls-4" x="11.33" y="25.85" width="1020.93" height="0.01"/><text class="cls-5" transform="translate(11.33 19.99) scale(1.17 1)">MON<tspan class="cls-6" x="22.73" y="0">D</tspan><tspan x="29.22" y="0">AY</tspan></text><text class="cls-5" transform="translate(157.2 19.99) scale(1.17 1)">TUES<tspan class="cls-6" x="24.71" y="0">D</tspan><tspan x="31.19" y="0">AY</tspan></text><text class="cls-5" transform="translate(303.79 19.99) scale(1.17 1)">WEDNES<tspan class="cls-6" x="40.48" y="0">D</tspan><tspan x="46.96" y="0">AY</tspan></text><text class="cls-5" transform="translate(450.09 19.99) scale(1.17 1)">THURS<tspan class="cls-7" x="32.62" y="0">D</tspan><tspan class="cls-8" x="39.11" y="0">AY</tspan></text><text class="cls-5" transform="translate(596.86 20.55) scale(1.17 1)">FRI<tspan class="cls-7" x="15.28" y="0">D</tspan><tspan class="cls-8" x="21.76" y="0">AY</tspan></text><text class="cls-5" transform="translate(743.62 19.99) scale(1.17 1)">SATUR<tspan class="cls-7" x="31.96" y="0">D</tspan><tspan x="38.45" y="0">AY</tspan></text><text class="cls-5" transform="translate(890.68 19.99) scale(1.17 1)">SUN<tspan class="cls-7" x="20.14" y="0">D</tspan><tspan x="26.62" y="0">AY</tspan></text><text class="cls-9" transform="translate(164.64 90.15) scale(1.17 1)">1.</text><text class="cls-9" transform="translate(312.88 90.15) scale(1.17 1)">2.</text><text class="cls-9" transform="translate(458.34 90.15) scale(1.17 1)">3.</text><text class="cls-9" transform="translate(605.19 90.15) scale(1.17 1)">4.</text><text class="cls-9" transform="translate(753.43 90.15) scale(1.17 1)">5.</text><text class="cls-9" transform="translate(900.28 90.15) scale(1.17 1)">6.</text><rect class="cls-1" x="890.14" y="193.61" width="141.58" height="121.17"/><rect class="cls-1" x="743.38" y="193.61" width="141.58" height="121.17"/><rect class="cls-1" x="890.14" y="319.2" width="141.58" height="121.17"/><rect class="cls-10" x="743.38" y="319.2" width="141.58" height="121.17"/><rect class="cls-1" x="889.85" y="443.89" width="141.58" height="121.17"/><rect class="cls-1" x="743.08" y="443.89" width="141.58" height="121.17"/><g class="cls-2"><rect class="cls-1" x="889.85" y="569.48" width="141.58" height="121.17"/></g><g class="cls-2"><rect class="cls-1" x="743.08" y="569.48" width="141.58" height="121.17"/></g><rect class="cls-1" x="596.32" y="193.16" width="141.58" height="121.17"/><rect class="cls-1" x="449.55" y="193.16" width="141.58" height="121.17"/><rect class="cls-1" x="596.32" y="318.75" width="141.58" height="121.17"/><rect class="cls-1" x="449.55" y="318.75" width="141.58" height="121.17"/><rect class="cls-1" x="596.02" y="443.43" width="141.58" height="121.17"/><rect class="cls-1" x="449.26" y="443.43" width="141.58" height="121.17"/><g class="cls-2"><rect class="cls-1" x="596.02" y="569.03" width="141.58" height="121.17"/></g><rect class="cls-1" x="449.26" y="569.03" width="141.58" height="121.17"/><rect class="cls-1" x="303.26" y="193.61" width="141.58" height="121.17"/><rect class="cls-1" x="303.26" y="319.2" width="141.58" height="121.17"/><rect class="cls-1" x="302.96" y="443.89" width="141.58" height="121.17"/><rect class="cls-1" x="302.96" y="569.48" width="141.58" height="121.17"/><rect class="cls-1" x="156.66" y="193.05" width="141.58" height="121.17"/><rect class="cls-1" x="156.66" y="318.64" width="141.58" height="121.17"/><rect class="cls-10" x="156.36" y="443.33" width="141.58" height="121.17"/><rect class="cls-1" x="156.36" y="568.92" width="141.58" height="121.17"/><rect class="cls-1" x="10.36" y="193.5" width="141.58" height="121.17"/><rect class="cls-1" x="10.36" y="319.1" width="141.58" height="121.17"/><rect class="cls-1" x="10.07" y="443.78" width="141.58" height="121.17"/><rect class="cls-1" x="10.07" y="569.37" width="141.58" height="121.17"/><text class="cls-9" transform="translate(18.65 215.94) scale(1.17 1)">7.</text><text class="cls-9" transform="translate(164.8 215.94) scale(1.17 1)">8.</text><text class="cls-9" transform="translate(313.04 215.94) scale(1.17 1)">9.</text><text class="cls-9" transform="translate(313.04 341.61) scale(1.17 1)">16.</text><text class="cls-9" transform="translate(164.8 341.61) scale(1.17 1)">15.</text><text class="cls-9" transform="translate(18.65 344.59) scale(1.17 1)">14.</text><text class="cls-9" transform="translate(313.04 466.09) scale(1.17 1)">23.</text><text class="cls-9" transform="translate(164.8 466.09) scale(1.17 1)">22.</text><text class="cls-9" transform="translate(18.65 466.09) scale(1.17 1)">21.</text><text class="cls-9" transform="translate(164.8 590.87) scale(1.17 1)">29.</text><text class="cls-9" transform="translate(313.04 590.87) scale(1.17 1)">30.</text><text class="cls-9" transform="translate(18.65 590.87) scale(1.17 1)">28.</text><text class="cls-9" transform="translate(458.5 215.94) scale(1.17 1)">10.</text><text class="cls-9" transform="translate(458.5 341.61) scale(1.17 1)">17.</text><text class="cls-9" transform="translate(605.35 215.94) scale(1.17 1)">11.</text><text class="cls-9" transform="translate(605.35 341.61) scale(1.17 1)">18.</text><text class="cls-9" transform="translate(753.6 215.94) scale(1.17 1)">12.</text><text class="cls-9" transform="translate(753.6 341.61) scale(1.17 1)">19.</text><text class="cls-9" transform="translate(605.35 466.09) scale(1.17 1)">25.</text><text class="cls-9" transform="translate(753.6 464.3) scale(1.17 1)">26.</text><text class="cls-9" transform="translate(458.5 464.3) scale(1.17 1)">24.</text><text class="cls-9" transform="translate(458.5 590.87) scale(1.17 1)">31.</text><text class="cls-9" transform="translate(900.45 215.94) scale(1.17 1)">13.</text><text class="cls-9" transform="translate(900.45 341.61) scale(1.17 1)">20.</text><text class="cls-9" transform="translate(900.45 464.3) scale(1.17 1)">27.</text><rect class="cls-11" x="763.48" y="393.12" width="98.77" height="38.38" rx="10.08" ry="10.08"/><text class="cls-12" transform="translate(776.75 417.53)">SEE EVENT</text><text class="cls-13" transform="translate(755.5 355.32)">Html 5 for beginners</text><text class="cls-14" transform="translate(775.24 368.98)">09:00 AM - 14:00 PM</text><text class="cls-14" transform="translate(791.56 382.1)">2500 <tspan class="cls-15" x="20.35" y="0">V</tspan><tspan x="24.89" y="0">AL</tspan><tspan class="cls-16" x="34.34" y="0">B</tspan><tspan x="38.96" y="0">Y</tspan></text><rect class="cls-11" x="174.46" y="519.2" width="98.77" height="38.38" rx="10.08" ry="10.08"/><text class="cls-12" transform="translate(187.73 543.62)">SEE EVENT</text><text class="cls-13" transform="translate(166.48 481.41)">Html 5 for beginners</text><text class="cls-14" transform="translate(186.22 495.06)">09:00 AM - 14:00 PM</text><text class="cls-14" transform="translate(202.54 508.19)">2500 <tspan class="cls-15" x="20.35" y="0">V</tspan><tspan x="24.89" y="0">AL</tspan><tspan class="cls-16" x="34.34" y="0">B</tspan><tspan x="38.96" y="0">Y</tspan></text></svg>