<?xml version="1.0" encoding="utf-8"?>
<!-- Generator: Adobe Illustrator 21.0.0, SVG Export Plug-In . SVG Version: 6.00 Build 0)  -->
<svg version="1.1" id="Lag_1" xmlns="http://www.w3.org/2000/svg" xmlns:xlink="http://www.w3.org/1999/xlink" x="0px" y="0px"
	 viewBox="0 0 1041.4 824.6" style="enable-background:new 0 0 1041.4 824.6;" xml:space="preserve">
<style type="text/css">
	.st0{fill:#DFDCE3;}
	.st1{opacity:0.3;}
	.st2{font-family:'Roboto-Regular';}
	.st3{font-size:20px;}
	.st4{fill:none;stroke:#DFDCE3;stroke-miterlimit:10;}
	.st5{font-size:10px;}
	.st6{fill:#FFFFFF;}
	.st7{fill:#42AB9E;}
	.st8{fill:#ECD06F;}
	.st9{font-family:'Roboto-Bold';}
	.st10{font-size:9.6541px;}
	.st11{font-size:13px;}
	.st12{font-size:8px;}
</style>
<g>
	<rect x="890" y="67.8" class="st0" width="141.6" height="121.2"/>
</g>
<g>
	<rect x="743.2" y="67.8" class="st0" width="141.6" height="121.2"/>
</g>
<g class="st1">
	<rect x="596.2" y="67.4" class="st0" width="141.6" height="121.2"/>
</g>
<g class="st1">
	<rect x="449.4" y="67.4" class="st0" width="141.6" height="121.2"/>
</g>
<g class="st1">
	<rect x="303.1" y="67.8" class="st0" width="141.6" height="121.2"/>
</g>
<g class="st1">
	<rect x="156.5" y="67.3" class="st0" width="141.6" height="121.2"/>
</g>
<g class="st1">
	<rect x="10.2" y="67.7" class="st0" width="141.6" height="121.2"/>
</g>
<text transform="matrix(1.1685 0 0 1 11.4212 56.2476)" class="st2 st3">JULY 2017</text>
<rect x="11.3" y="25.9" class="st4" width="1020.9" height="0"/>
<text transform="matrix(1.1685 0 0 1 11.3324 19.9893)" class="st0 st2 st5">MONDAY</text>
<text transform="matrix(1.1685 0 0 1 157.1996 19.9893)" class="st0 st2 st5">TUESDAY</text>
<text transform="matrix(1.1685 0 0 1 303.7923 19.9893)" class="st0 st2 st5">WEDNESDAY</text>
<text transform="matrix(1.1685 0 0 1 450.0921 19.9893)" class="st0 st2 st5">THURSDAY</text>
<text transform="matrix(1.1685 0 0 1 596.8568 20.5464)" class="st0 st2 st5">FRIDAY</text>
<text transform="matrix(1.1685 0 0 1 743.6204 19.9893)" class="st0 st2 st5">SATURDAY</text>
<text transform="matrix(1.1685 0 0 1 890.681 19.9893)" class="st0 st2 st5">SUNDAY</text>
<text transform="matrix(1.1685 0 0 1 753.4329 90.1538)" class="st6 st2 st3">1.</text>
<text transform="matrix(1.1685 0 0 1 900.2825 90.1538)" class="st6 st2 st3">2.</text>
<g>
	<rect x="890.1" y="193.6" class="st0" width="141.6" height="121.2"/>
</g>
<g>
	<rect x="743.4" y="193.6" class="st0" width="141.6" height="121.2"/>
</g>
<g>
	<rect x="890.1" y="319.2" class="st0" width="141.6" height="121.2"/>
</g>
<g>
	<rect x="743.4" y="319.2" class="st0" width="141.6" height="121.2"/>
</g>
<g>
	<rect x="889.8" y="443.9" class="st7" width="141.6" height="121.2"/>
</g>
<g>
	<rect x="743.1" y="443.9" class="st0" width="141.6" height="121.2"/>
</g>
<g>
	<rect x="889.8" y="569.5" class="st0" width="141.6" height="121.2"/>
</g>
<g>
	<rect x="743.1" y="569.5" class="st0" width="141.6" height="121.2"/>
</g>
<g>
	<rect x="596.3" y="193.2" class="st0" width="141.6" height="121.2"/>
</g>
<g>
	<rect x="449.6" y="193.2" class="st0" width="141.6" height="121.2"/>
</g>
<g>
	<rect x="596.3" y="318.7" class="st0" width="141.6" height="121.2"/>
</g>
<g>
	<rect x="449.6" y="318.7" class="st0" width="141.6" height="121.2"/>
</g>
<g>
	<rect x="596" y="443.4" class="st0" width="141.6" height="121.2"/>
</g>
<g>
	<rect x="449.3" y="443.4" class="st0" width="141.6" height="121.2"/>
</g>
<g>
	<rect x="596" y="569" class="st0" width="141.6" height="121.2"/>
</g>
<g>
	<rect x="449.3" y="569" class="st0" width="141.6" height="121.2"/>
</g>
<g>
	<rect x="303.3" y="193.6" class="st0" width="141.6" height="121.2"/>
</g>
<g>
	<rect x="303.3" y="319.2" class="st7" width="141.6" height="121.2"/>
</g>
<g>
	<rect x="303" y="443.9" class="st0" width="141.6" height="121.2"/>
</g>
<g>
	<rect x="303" y="569.5" class="st0" width="141.6" height="121.2"/>
</g>
<g>
	<rect x="156.7" y="193.1" class="st0" width="141.6" height="121.2"/>
</g>
<g>
	<rect x="156.7" y="318.6" class="st0" width="141.6" height="121.2"/>
</g>
<g>
	<rect x="156.4" y="443.3" class="st0" width="141.6" height="121.2"/>
</g>
<g>
	<rect x="156.4" y="568.9" class="st0" width="141.6" height="121.2"/>
</g>
<g>
	<rect x="10.4" y="193.5" class="st0" width="141.6" height="121.2"/>
</g>
<g>
	<rect x="10.4" y="319.1" class="st0" width="141.6" height="121.2"/>
</g>
<g>
	<rect x="10.1" y="443.8" class="st0" width="141.6" height="121.2"/>
</g>
<g>
	<rect x="10.1" y="569.4" class="st0" width="141.6" height="121.2"/>
</g>
<g class="st1">
	<rect x="889.4" y="695.6" class="st0" width="141.6" height="121.2"/>
</g>
<g class="st1">
	<rect x="742.7" y="695.6" class="st0" width="141.6" height="121.2"/>
</g>
<g class="st1">
	<rect x="595.6" y="695.2" class="st0" width="141.6" height="121.2"/>
</g>
<g class="st1">
	<rect x="448.9" y="695.2" class="st0" width="141.6" height="121.2"/>
</g>
<g class="st1">
	<rect x="302.6" y="695.6" class="st0" width="141.6" height="121.2"/>
</g>
<g class="st1">
	<rect x="156" y="695.1" class="st0" width="141.6" height="121.2"/>
</g>
<g>
	<rect x="9.7" y="695.5" class="st0" width="141.6" height="121.2"/>
</g>
<text transform="matrix(1.1685 0 0 1 18.6481 215.9368)" class="st6 st2 st3">3.</text>
<text transform="matrix(1.1685 0 0 1 164.8014 215.9368)" class="st6 st2 st3">4.</text>
<text transform="matrix(1.1685 0 0 1 313.0446 215.9368)" class="st6 st2 st3">5.</text>
<text transform="matrix(1.1685 0 0 1 313.0446 341.6087)" class="st6 st2 st3">12.</text>
<text transform="matrix(1.1685 0 0 1 164.8014 341.6087)" class="st6 st2 st3">11.</text>
<text transform="matrix(1.1685 0 0 1 18.6481 344.5872)" class="st6 st2 st3">10.</text>
<text transform="matrix(1.1685 0 0 1 313.0446 466.0911)" class="st6 st2 st3">19.</text>
<text transform="matrix(1.1685 0 0 1 164.8014 466.0911)" class="st6 st2 st3">18.</text>
<text transform="matrix(1.1685 0 0 1 18.6481 466.0911)" class="st6 st2 st3">17.</text>
<text transform="matrix(1.1685 0 0 1 164.8014 590.8699)" class="st6 st2 st3">25.</text>
<text transform="matrix(1.1685 0 0 1 313.0446 590.8699)" class="st6 st2 st3">26.</text>
<text transform="matrix(1.1685 0 0 1 18.6481 590.8719)" class="st6 st2 st3">24.</text>
<text transform="matrix(1.1685 0 0 1 18.6481 718.6277)" class="st6 st2 st3">31.</text>
<text transform="matrix(1.1685 0 0 1 458.5035 215.9368)" class="st6 st2 st3">6.</text>
<text transform="matrix(1.1685 0 0 1 458.5035 341.6087)" class="st6 st2 st3">13.</text>
<text transform="matrix(1.1685 0 0 1 605.3541 215.9368)" class="st6 st2 st3">7.</text>
<text transform="matrix(1.1685 0 0 1 605.3541 341.6087)" class="st6 st2 st3">14.</text>
<text transform="matrix(1.1685 0 0 1 753.5963 215.9368)" class="st6 st2 st3">8.</text>
<text transform="matrix(1.1685 0 0 1 753.5963 341.6087)" class="st6 st2 st3">15.</text>
<text transform="matrix(1.1685 0 0 1 605.3541 466.0911)" class="st6 st2 st3">21.</text>
<text transform="matrix(1.1685 0 0 1 753.5963 464.3035)" class="st6 st2 st3">22.</text>
<text transform="matrix(1.1685 0 0 1 458.5045 464.3035)" class="st6 st2 st3">20.</text>
<text transform="matrix(1.1685 0 0 1 458.5035 590.8719)" class="st6 st2 st3">27.</text>
<text transform="matrix(1.1685 0 0 1 605.3541 590.8699)" class="st6 st2 st3">28.</text>
<text transform="matrix(1.1685 0 0 1 753.5963 590.8719)" class="st6 st2 st3">29.</text>
<text transform="matrix(1.1685 0 0 1 900.4459 215.9368)" class="st6 st2 st3">9.</text>
<text transform="matrix(1.1685 0 0 1 900.4459 341.6087)" class="st6 st2 st3">16.</text>
<text transform="matrix(1.1685 0 0 1 900.4459 464.3035)" class="st6 st2 st3">23.</text>
<text transform="matrix(1.1685 0 0 1 900.4459 590.8699)" class="st6 st2 st3">30.</text>
<path class="st8" d="M427,432.7h-46.6c-5.5,0-10.1-4.5-10.1-10.1v-5.8c0-5.5,4.5-10.1,10.1-10.1H427c5.5,0,10.1,4.5,10.1,10.1v5.8
	C437,428.2,432.5,432.7,427,432.7z"/>
<text transform="matrix(1 0 0 1 379.2262 423.2947)" class="st6 st9 st10">SEE EVENT</text>
<text transform="matrix(1 0 0 1 313.3102 363.562)" class="st6 st9 st11">Html 5 for beginners</text>
<text transform="matrix(1 0 0 1 313.3102 377.562)" class="st6 st9 st12">09:00 AM - 14:00 PM</text>
<text transform="matrix(1 0 0 1 313.3102 390.6869)" class="st6 st9 st12">2500 VALBY</text>
<path class="st8" d="M1012,555.9h-46.6c-5.5,0-10.1-4.5-10.1-10.1V540c0-5.5,4.5-10.1,10.1-10.1h46.6c5.5,0,10.1,4.5,10.1,10.1v5.8
	C1022.1,551.3,1017.6,555.9,1012,555.9z"/>
<text transform="matrix(1 0 0 1 964.2809 546.4379)" class="st6 st9 st10">SEE EVENT</text>
<text transform="matrix(1 0 0 1 898.3649 484.7052)" class="st6 st9 st11">Html 5 for beginners</text>
<text transform="matrix(1 0 0 1 898.3649 498.7052)" class="st6 st9 st12">09:00 AM - 14:00 PM</text>
<text transform="matrix(1 0 0 1 898.3649 511.8301)" class="st6 st9 st12">2500 VALBY</text>
</svg>
