<svg id="Lag_1" data-name="Lag 1" xmlns="http://www.w3.org/2000/svg" viewBox="0 0 623.45 243.12"><defs><style>.cls-1,.cls-2{fill:#070102;}.cls-2{font-size:146.36px;font-family:NeoTechPro-Regular, Neo Tech Pro;letter-spacing:-0.04em;}.cls-3{letter-spacing:0em;}.cls-4{fill:#41a296;}</style></defs><title>Tegnebræt 1</title><polygon class="cls-1" points="520.67 17.5 522.17 19.01 601.28 19.01 602.68 19.01 602.7 102.24 604.15 103.7 604.15 17.5 520.67 17.5"/><polygon class="cls-1" points="139.2 223.46 482.93 223.46 484.33 222 137.83 221.98 139.2 223.46"/><polygon class="cls-1" points="21.74 101.06 21.74 20.69 22.43 20.69 101.52 20.69 103.33 18.86 20.27 18.86 20.27 102.53 21.74 101.06"/><polygon class="cls-1" points="21.74 222.03 21.74 222.03 21.74 137.58 20.27 136.03 20.27 223.46 102.55 223.46 101.17 222 21.74 222.03"/><text class="cls-2" transform="translate(117.42 164.56)">c<tspan class="cls-3" x="60.89" y="0">odify</tspan></text><polygon class="cls-1" points="602.7 137.53 602.71 221.87 601.86 221.87 520.67 222 520.67 223.46 604.15 223.46 604.15 136.03 602.7 137.53"/><polygon class="cls-4" points="506.14 7.03 506.14 2.54 620.23 121.73 506.14 240.92 506.14 236.44 615.93 121.73 506.14 7.03"/><polygon class="cls-4" points="117.31 6.94 117.31 2.46 3.23 121.64 117.31 240.84 117.31 236.35 7.52 121.64 117.31 6.94"/><polygon class="cls-4" points="117.31 4.57 117.31 0 0 121.56 117.31 243.12 117.31 238.55 4.41 121.56 117.31 4.57"/><polygon class="cls-4" points="506.14 4.66 506.14 0.09 623.45 121.64 506.14 243.21 506.14 238.63 619.04 121.64 506.14 4.66"/><polygon class="cls-1" points="139.23 17.5 482.95 17.5 484.36 18.96 137.86 18.99 139.23 17.5"/></svg>