<svg id="Lag_1" data-name="Lag 1" xmlns="http://www.w3.org/2000/svg" viewBox="0 0 623.45 243.12"><defs><style>.cls-1,.cls-2{fill:#070102;}.cls-2{stroke:#fff;stroke-miterlimit:10;}.cls-3{fill:#41a296;}</style></defs><title>Tegnebræt 1</title><polygon class="cls-1" points="520.67 17.5 522.17 19.01 601.28 19.01 602.68 19.01 602.7 102.24 604.15 103.7 604.15 17.5 520.67 17.5"/><polygon class="cls-1" points="139.2 223.46 482.93 223.46 484.33 222 137.83 221.98 139.2 223.46"/><polygon class="cls-1" points="21.74 101.06 21.74 20.69 22.43 20.69 101.52 20.69 103.33 18.86 20.27 18.86 20.27 102.53 21.74 101.06"/><polygon class="cls-1" points="21.74 222.03 21.74 222.03 21.74 137.58 20.27 136.03 20.27 223.46 102.55 223.46 101.17 222 21.74 222.03"/><path class="cls-2" d="M174.2,164a106.13,106.13,0,0,1-18.3,1.61c-19.91,0-31.17-14.05-31.17-35.57V118.6c0-21.52,11.12-35.57,31.17-35.57a107.58,107.58,0,0,1,18.3,1.61c2.34.44,2.93,1.17,2.93,3.22v5.27a2.23,2.23,0,0,1-2.49,2.2h-.59a142.79,142.79,0,0,0-18.15-1c-11.71,0-18.29,7.76-18.29,24.3V130c0,16.39,6.44,24.3,18.29,24.3a142.7,142.7,0,0,0,18.15-1h.59a2.23,2.23,0,0,1,2.49,2.2v5.27C177.13,162.66,176.55,163.54,174.2,164Z"/><path class="cls-2" d="M218.11,165.59c-21.51,0-32.49-14.2-32.49-35.71V118.75c0-21.52,11-35.71,32.49-35.71s32.64,14.2,32.64,35.71v11.12C250.75,151.39,239.63,165.59,218.11,165.59Zm19.76-46.84c0-14.93-6-24.44-19.76-24.44s-19.61,9.37-19.61,24.44v11.12c0,14.93,5.85,24.44,19.61,24.44s19.76-9.37,19.76-24.44Z"/><path class="cls-2" d="M324.23,163.1a140.78,140.78,0,0,1-26.93,2.49c-21.81,0-31.91-14.2-31.91-36.15V118.9c0-23,10.54-35.86,31.91-35.86a106.71,106.71,0,0,1,17.13,1.46V57.28a2.78,2.78,0,0,1,2.78-2.78h7.46a2.66,2.66,0,0,1,2.63,2.78V159.73C327.3,161.63,326.86,162.66,324.23,163.1Zm-9.81-67.77c-4.83-.88-12.44-1-17.12-1-14.34,0-19,8.93-19,24.59v10.54c0,16,4.54,24.88,19,24.88,5,0,12.15-.44,17.13-.88Z"/><path class="cls-2" d="M359.06,71.18h-7.46a2.94,2.94,0,0,1-2.93-2.93V56.55a2.94,2.94,0,0,1,2.93-2.93h7.46A2.94,2.94,0,0,1,362,56.55V68.25A2.94,2.94,0,0,1,359.06,71.18Zm-.29,93.38h-7a2.94,2.94,0,0,1-2.93-2.93V87a2.94,2.94,0,0,1,2.93-2.93h7A2.94,2.94,0,0,1,361.69,87v74.65A2.94,2.94,0,0,1,358.77,164.56Z"/><path class="cls-2" d="M418.92,63.86h-13c-8,0-9.66,1.32-9.66,10V84.06h22.83a2.58,2.58,0,0,1,2.78,2.63v5a2.66,2.66,0,0,1-2.78,2.63H396.23v67.33a2.94,2.94,0,0,1-2.93,2.93h-7a2.94,2.94,0,0,1-2.93-2.93V73.82c0-15.66,8.78-20.34,22.54-20.34a94.52,94.52,0,0,1,13.17.88c2.2.29,2.93,1.17,2.93,2.49v5C422,63.13,421,63.86,418.92,63.86Z"/><path class="cls-2" d="M467.36,193.54a114.11,114.11,0,0,1-24.15-2.49c-2-.59-2.78-1.32-2.78-3.07v-4.1a2.5,2.5,0,0,1,2.63-2.49h.44a212.3,212.3,0,0,0,23.86,1.76c13.17,0,17.27-3.22,17.27-18.59v-.73c-3.51,1-11.56,1.76-16.25,1.76-16.83,0-32.79-5.85-32.79-30.3V87a2.93,2.93,0,0,1,2.93-2.93h7A2.93,2.93,0,0,1,448.48,87v48.3c0,15.66,7.61,19.32,19.91,19.32a84.77,84.77,0,0,0,16-1.9V87a2.94,2.94,0,0,1,2.93-2.93h7A2.94,2.94,0,0,1,497.22,87v77.57C497.22,187.54,487.27,193.54,467.36,193.54Z"/><polygon class="cls-1" points="602.7 137.53 602.71 221.87 601.86 221.87 520.67 222 520.67 223.46 604.15 223.46 604.15 136.03 602.7 137.53"/><polygon class="cls-3" points="506.14 7.03 506.14 2.54 620.23 121.73 506.14 240.92 506.14 236.44 615.93 121.73 506.14 7.03"/><polygon class="cls-3" points="117.31 6.94 117.31 2.46 3.23 121.64 117.31 240.84 117.31 236.35 7.52 121.64 117.31 6.94"/><polygon class="cls-3" points="117.31 4.57 117.31 0 0 121.56 117.31 243.12 117.31 238.55 4.41 121.56 117.31 4.57"/><polygon class="cls-3" points="506.14 4.66 506.14 0.09 623.45 121.64 506.14 243.21 506.14 238.63 619.04 121.64 506.14 4.66"/><polygon class="cls-1" points="139.23 17.5 482.95 17.5 484.36 18.96 137.86 18.99 139.23 17.5"/></svg>